# xmcd
#
# Track frame offsets:
#	150
#	16998
#	29265
#	44108
#	56440
#	70485
#	87093
#	102210
#	119703
#	138113
#	150708
#	168175
#	183478
#
# Disc length: 2574 seconds
#
# Revision: 0
# Processed by: cddbd v1.5.1PL2 Copyright (c) Steve Scherf et al.
# Submitted via: dBpowerAMP V4.0
#
DISCID=ad0a0c0d
DTITLE=Willie Nelson and Ray Price - San Antonio Rose
DYEAR=2003
DGENRE=Country
TTITLE0=San Antonio Rose
TTITLE1=I`ll Be There (if you ever want me)
TTITLE2=I Fall To Pieces
TTITLE3=Crazy Arms
TTITLE4=Release Me
TTITLE5=Don`t You Ever Get Tired (of hunting me)
TTITLE6=This Cold War With You
TTITLE7=Funny How Time Slips
TTITLE8=Night Life
TTITLE9=Deep Water
TTITLE10=Faded Love
TTITLE11=Just Call Me Lonesome (Bonus)
TTITLE12=My Life`s Been A Pleasure (Bonus)
EXTD=Reunion of Willie Nelson and Ray Price.
EXTT0=
EXTT1=
EXTT2=
EXTT3=
EXTT4=
EXTT5=
EXTT6=
EXTT7=
EXTT8=
EXTT9=
EXTT10=
EXTT11=
EXTT12=
PLAYORDER=
